# xmcd
#
# Track frame offsets: 
#        150
#        22377
#        42765
#        58387
#        75775
#        91335
#        113590
#        131060
#        150865
#        202235
#
# Disc length: 3000 seconds
#
# Revision: 1
# Processed by: cddbd v1.5.2PL0 Copyright (c) Steve Scherf et al.
# Submitted via: ExactAudioCopy v0.99pb5
#
DISCID=7d0bb60a
DTITLE=The Big Brother - The Big Brother
DYEAR=1991
DGENRE=Electronic
TTITLE0=Wild Reputation
TTITLE1=Don't Go Breaking My Heart
TTITLE2=Big Time
TTITLE3=Oh Oh Oh Girls Are Dancing
TTITLE4=Knock On Wood
TTITLE5=L.A. Time
TTITLE6=Rock And Roll
TTITLE7=Red Fire
TTITLE8=The Big Brother Megamix
TTITLE9=Tears On My Eyes
EXTD=
EXTT0=
EXTT1=
EXTT2=
EXTT3=
EXTT4=
EXTT5=
EXTT6=
EXTT7=
EXTT8=
EXTT9=
PLAYORDER=
